# File created by Blade
# Date/Time:  Tue Jan 27 18:35:12 2015
#---------------------------------------------------------
:version 1.10
:name HOM
:units
  mass 1.0
  length 1.000000
  angle deg
:documentation
     Acclaim Skeleton File
:root
   axis xyz
   order TX TY TZ RX RY RZ
   position 0.000000 0.000000 0.000000
   orientation 0 0 0
:bonedata
   begin
      id 1
      name Spine_dum
      direction 0.000000 1.000000 0.000000
      length 5.195262
      axis 0.0 0.0 0.0 xyz
   end
   begin
      id 2
      name LeftUpLeg_dum
      direction 1.000000 0.000000 0.000000
      length 3.351363
      axis 0.0 0.0 0.0 xyz
   end
   begin
      id 3
      name RightUpLeg_dum
      direction -1.000000 0.000000 0.000000
      length 3.351363
      axis 0.0 0.0 0.0 xyz
   end
   begin
      id 4
      name Spine
      direction 0.000000 1.000000 0.000000
      length 0.000000
      axis 0.0 0.0 0.0 xyz
      dof rx ry rz
   end
   begin
      id 5
      name Spine_dum1
      direction 0.000000 1.000000 0.000000
      length 15.653875
      axis 0.0 0.0 0.0 xyz
   end
   begin
      id 6
      name Spine_dum2
      direction 0.000000 1.000000 0.000000
      length 10.329768
      axis 0.0 0.0 0.0 xyz
   end
   begin
      id 7
      name Spine_dum3
      direction 0.000000 1.000000 0.000000
      length 10.329768
      axis 0.0 0.0 0.0 xyz
   end
   begin
      id 8
      name Head
      direction 0.000000 1.000000 0.000000
      length 4.527550
      axis 0.0 0.0 0.0 xyz
      dof rx ry rz
   end
   begin
      id 9
      name LeftShoulder
      direction 1.000000 0.000000 0.000000
      length 6.996006
      axis 0.0 0.0 -90.0 xyz
      dof rx ry rz
   end
   begin
      id 10
      name LeftArm
      direction 1.000000 0.000000 0.000000
      length 10.209302
      axis 0.0 0.0 -90.0 xyz
      dof rx ry rz
   end
   begin
      id 11
      name LeftForeArm
      direction 1.000000 0.000000 0.000000
      length 8.563163
      axis 0.0 0.0 -90.0 xyz
      dof ry rz rx
   end
   begin
      id 12
      name LeftHand
      direction 0.000000 0.000000 0.000000
      length 0.000000
      axis 0.0 0.0 -90.0 xyz
      dof rx ry rz
   end
   begin
      id 13
      name LeftHand_dum1
      direction 0.000000 0.000000 0.000000
      length 0.000000
      axis 0.0 0.0 -90.0 xyz
   end
   begin
      id 14
      name LeftHand_dum2
      direction 1.000000 0.000000 0.000000
      length 3.937000
      axis 0.0 0.0 -90.0 xyz
   end
   begin
      id 15
      name LeftHandThumb1
      direction 0.000000 0.000000 1.000000
      length 3.937000
      axis 0.0 0.0 -90.0 xyz
      dof rx rz ry
   end
   begin
      id 16
      name RightShoulder
      direction -1.000000 0.000000 0.000000
      length 6.996006
      axis 0.0 0.0 90.0 xyz
      dof rx ry rz
   end
   begin
      id 17
      name RightArm
      direction -1.000000 0.000000 0.000000
      length 10.209302
      axis 0.0 0.0 90.0 xyz
      dof rx ry rz
   end
   begin
      id 18
      name RightForeArm
      direction -1.000000 0.000000 0.000000
      length 8.563163
      axis 0.0 0.0 90.0 xyz
      dof ry rz rx
   end
   begin
      id 19
      name RightHand
      direction 0.000000 0.000000 0.000000
      length 0.000000
      axis 0.0 0.0 90.0 xyz
      dof rx ry rz
   end
   begin
      id 20
      name RightHand_dum1
      direction 0.000000 0.000000 0.000000
      length 0.000000
      axis 0.0 0.0 90.0 xyz
   end
   begin
      id 21
      name RightHand_dum2
      direction -1.000000 0.000000 0.000000
      length 3.937000
      axis 0.0 0.0 90.0 xyz
   end
   begin
      id 22
      name RightHandThumb1
      direction 0.000000 0.000000 1.000000
      length 3.937000
      axis 0.0 0.0 90.0 xyz
      dof rx rz ry
   end
   begin
      id 23
      name LeftUpLeg
      direction 0.000000 -1.000000 0.000000
      length 16.346831
      axis 0.0 0.0 0.0 xyz
      dof rx ry rz
   end
   begin
      id 24
      name LeftLeg
      direction 0.000000 -1.000000 0.000000
      length 13.959795
      axis 0.0 0.0 0.0 xyz
      dof rx ry rz
   end
   begin
      id 25
      name LeftFoot
      direction 0.000000 -0.258819 0.965926
      length 5.165550
      axis 15.0 0.0 0.0 xyz
      dof rx ry rz
   end
   begin
      id 26
      name LeftToeBase
      direction 0.000000 0.000000 1.000000
      length 2.952750
      axis 0.0 0.0 0.0 xyz
      dof rx ry rz
   end
   begin
      id 27
      name RightUpLeg
      direction 0.000000 -1.000000 0.000000
      length 16.346831
      axis 0.0 0.0 0.0 xyz
      dof rx ry rz
   end
   begin
      id 28
      name RightLeg
      direction 0.000000 -1.000000 0.000000
      length 13.959795
      axis 0.0 0.0 0.0 xyz
      dof rx ry rz
   end
   begin
      id 29
      name RightFoot
      direction 0.000000 -0.258819 0.965926
      length 5.165550
      axis 15.0 0.0 0.0 xyz
      dof rx ry rz
   end
   begin
      id 30
      name RightToeBase
      direction 0.000000 0.000000 1.000000
      length 2.952750
      axis 0.0 0.0 0.0 xyz
      dof rx ry rz
   end
:hierarchy
   begin
      root Spine_dum LeftUpLeg_dum RightUpLeg_dum
      Spine_dum Spine
      LeftUpLeg_dum LeftUpLeg
      RightUpLeg_dum RightUpLeg
      Spine Spine_dum1 Spine_dum2 Spine_dum3
      Spine_dum1 Head
      Spine_dum2 LeftShoulder
      Spine_dum3 RightShoulder
      LeftShoulder LeftArm
      LeftArm LeftForeArm
      LeftForeArm LeftHand
      LeftHand LeftHand_dum1 LeftHand_dum2
      LeftHand_dum1 LeftHandThumb1
      RightShoulder RightArm
      RightArm RightForeArm
      RightForeArm RightHand
      RightHand RightHand_dum1 RightHand_dum2
      RightHand_dum1 RightHandThumb1
      LeftUpLeg LeftLeg
      LeftLeg LeftFoot
      LeftFoot LeftToeBase
      RightUpLeg RightLeg
      RightLeg RightFoot
      RightFoot RightToeBase
   end

# File created by Blade
# Date/Time:  Tue Jan 27 18:35:03 2015
# Frame Rate: 120.000 fps
#------------------------------------------------------
:FULLY-SPECIFIED
:DEGREES
823
root -4.058931 31.934472 -1.242621 -21.253827 36.650658 -25.489660
Spine 15.380494 -13.239541 6.956729
Head 8.256600 -11.297501 20.507429
LeftShoulder -10.448056 7.648053 21.878053
LeftArm 39.964121 -4.932283 -68.814882
LeftForeArm 140.398212 -0.000000 122.253551
LeftHand 5.166367 -0.000000 -9.661011
LeftHandThumb1 -26.253704 0.000000 33.147579
RightShoulder -15.733239 -7.827085 -5.007052
RightArm 11.647054 -42.198248 72.113146
RightForeArm -25.852938 0.000000 26.978065
RightHand -14.312362 -0.000000 12.244165
RightHandThumb1 -24.326973 -0.000000 -32.862282
LeftUpLeg -9.679136 -2.936953 16.231986
LeftLeg 39.771602 -0.000000 -0.000000
LeftFoot -24.984577 -8.020542 -14.873233
LeftToeBase 18.027510 -0.000000 -0.000000
RightUpLeg -89.493797 2.330506 -4.425169
RightLeg 83.580967 -0.000000 -0.000000
RightFoot -15.750408 -25.869021 6.806858
RightToeBase 7.638163 -0.000000 -0.000000
824
root -4.025582 31.926328 -1.248254 -21.091176 36.360783 -25.262371
Spine 15.308898 -13.073212 6.983118
Head 8.372564 -11.220314 20.587257
LeftShoulder -10.508733 7.735989 21.857410
LeftArm 39.848230 -5.042209 -68.713393
LeftForeArm 140.367166 -0.000000 122.092981
LeftHand 5.034393 -0.000000 -9.603745
LeftHandThumb1 -26.253704 0.000000 33.147579
RightShoulder -15.740570 -7.835578 -4.990372
RightArm 11.903890 -42.363456 71.915204
RightForeArm -25.816343 0.000000 26.805507
RightHand -14.319188 -0.000000 12.096722
RightHandThumb1 -24.326973 -0.000000 -32.862282
LeftUpLeg -9.566065 -2.759883 16.101259
LeftLeg 39.842575 -0.000000 -0.000000
LeftFoot -25.012120 -8.009961 -14.947630
LeftToeBase 17.946175 -0.000000 -0.000000
RightUpLeg -89.480579 2.258565 -4.443449
RightLeg 83.616315 -0.000000 -0.000000
RightFoot -15.941999 -25.642288 6.942210
RightToeBase 7.999779 -0.000000 -0.000000
825
root -3.990376 31.919032 -1.250739 -20.895170 35.982805 -24.992968
Spine 15.239554 -12.867998 6.979084
Head 8.513096 -11.128574 20.656814
LeftShoulder -10.635546 7.873897 21.827856
LeftArm 39.772936 -5.126492 -68.602784
LeftForeArm 140.411708 -0.000000 121.954753
LeftHand 5.028098 -0.000000 -9.585305
LeftHandThumb1 -26.253704 0.000000 33.147579
RightShoulder -15.740684 -7.814730 -4.961034
RightArm 12.139384 -42.558449 71.689807
RightForeArm -25.712572 -0.000000 26.683838
RightHand -14.342551 -0.000000 12.008593
RightHandThumb1 -24.326973 -0.000000 -32.862282
LeftUpLeg -9.403698 -2.551974 15.968458
LeftLeg 39.858141 -0.000000 -0.000000
LeftFoot -25.051891 -7.958588 -14.905290
LeftToeBase 17.761986 -0.000000 -0.000000
RightUpLeg -89.480825 2.274133 -4.371356
RightLeg 83.629466 -0.000000 -0.000000
RightFoot -15.978191 -25.614673 6.804145
RightToeBase 8.289909 -0.000000 -0.000000
826
root -3.957250 31.910003 -1.257513 -20.655920 35.600150 -24.673170
Spine 15.153419 -12.647202 6.936515
Head 8.620583 -11.075519 20.743138
LeftShoulder -10.708188 8.009891 21.778736
LeftArm 39.684493 -5.249816 -68.405457
LeftForeArm 140.371357 -0.000000 121.842592
LeftHand 4.992900 -0.000000 -9.816389
LeftHandThumb1 -26.253704 0.000000 33.147579
RightShoulder -15.727190 -7.807436 -4.967973
RightArm 12.327909 -42.611028 71.566709
RightForeArm -25.686814 0.000000 26.565324
RightHand -14.296350 -0.000000 12.043038
RightHandThumb1 -24.326973 -0.000000 -32.862282
LeftUpLeg -9.254145 -2.343731 15.784271
LeftLeg 39.874287 -0.000000 -0.000000
LeftFoot -25.102119 -7.877947 -14.931835
LeftToeBase 17.673925 -0.000000 -0.000000
RightUpLeg -89.514223 2.307944 -4.289195
RightLeg 83.625449 -0.000000 -0.000000
RightFoot -15.955964 -25.567797 6.734740
RightToeBase 8.249872 -0.000000 -0.000000
827
root -3.926350 31.902302 -1.259251 -20.423492 35.151032 -24.344801
Spine 15.107563 -12.416672 6.863535
Head 8.736129 -10.956199 20.791715
LeftShoulder -10.824274 8.063947 21.783245
LeftArm 39.488841 -5.349917 -68.231931
LeftForeArm 140.152029 0.000000 121.744049
LeftHand 4.807820 0.000000 -9.792488
LeftHandThumb1 -26.253704 0.000000 33.147579
RightShoulder -15.678882 -7.730337 -4.961961
RightArm 12.403703 -42.622869 71.505781
RightForeArm -25.690657 -0.000000 26.502806
RightHand -14.351577 0.000000 12.118952
RightHandThumb1 -24.326973 -0.000000 -32.862282
LeftUpLeg -9.040826 -2.092813 15.621147
LeftLeg 39.839601 -0.000000 -0.000000
LeftFoot -25.163511 -7.791818 -14.938806
LeftToeBase 17.490402 -0.000000 -0.000000
RightUpLeg -89.531418 2.434644 -4.169653
RightLeg 83.635873 -0.000000 -0.000000
RightFoot -15.770660 -25.599343 6.405701
RightToeBase 8.144786 -0.000000 -0.000000
